<svg width="54" height="37" viewBox="0 0 54 37" fill="none" xmlns="http://www.w3.org/2000/svg">
<path d="M13.198 22.7491V22.7491C20.1305 22.3929 25.7609 17.0219 26.4434 10.1139L26.5534 9.00082L26.6888 10.0228C27.6089 16.97 33.3098 22.2989 40.3032 22.7491V22.7491L39.8845 22.8051C32.9528 23.7323 27.4955 29.1778 26.5534 36.1076V36.1076V36.1076C25.714 29.2663 20.4133 23.8257 13.5962 22.8085L13.198 22.7491Z" fill="#A1ABFC"/>
<path d="M21.8698 4.84605V4.84605C24.3131 4.72051 26.2975 2.8275 26.5381 0.392813L26.5768 0.000504214L26.6245 0.360695C26.9489 2.80921 28.9581 4.68738 31.4229 4.84605V4.84605L31.2753 4.86579C28.8323 5.19258 26.9089 7.11182 26.5768 9.55418V9.55418V9.55418C26.281 7.143 24.4128 5.22548 22.0101 4.86699L21.8698 4.84605Z" fill="#A1ABFC"/>
</svg>
