<svg width="54" height="28" viewBox="0 0 54 28" fill="none" xmlns="http://www.w3.org/2000/svg">
<path d="M13.198 13.7491V13.7491C20.1305 13.3929 25.7609 8.02189 26.4434 1.11392L26.5534 0.000815471L26.6888 1.02279C27.6089 7.96999 33.3098 13.2989 40.3032 13.7491V13.7491L39.8845 13.8051C32.9528 14.7323 27.4955 20.1778 26.5534 27.1076V27.1076V27.1076C25.714 20.2663 20.4133 14.8257 13.5962 13.8085L13.198 13.7491Z" fill="#A1ABFC"/>
<path d="M40.0968 13.7228V13.7228C43.4866 13.5486 46.2397 10.9223 46.5734 7.5445L46.6272 7.00022L46.6934 7.49994C47.1434 10.8969 49.9309 13.5026 53.3505 13.7228V13.7228L53.1458 13.7501C49.7563 14.2035 47.0879 16.8662 46.6272 20.2547V20.2547V20.2547C46.2168 16.9095 43.6249 14.2492 40.2915 13.7518L40.0968 13.7228Z" fill="#A1ABFC"/>
<path d="M0.0968351 13.7228V13.7228C3.48661 13.5486 6.23973 10.9223 6.57345 7.5445L6.62722 7.00022L6.69341 7.49994C7.14336 10.8969 9.9309 13.5026 13.3505 13.7228V13.7228L13.1458 13.7501C9.75634 14.2035 7.0879 16.8662 6.62722 20.2547V20.2547V20.2547C6.21681 16.9095 3.62489 14.2492 0.291523 13.7518L0.0968351 13.7228Z" fill="#A1ABFC"/>
</svg>
